<svg id="Layer_1" data-name="Layer 1" xmlns="http://www.w3.org/2000/svg" viewBox="0 0 512 512"><title>pointing-finger-right-outline</title><path d="M0,250a170.78,170.78,0,0,1,17.15-75.62H86.41Q134.3,151.25,195.8,134l89.32,7.83,13.27,11.89,132,2.83q45.49,0,63.56,7.83T512,191.65q0,16.61-18.94,25.05t-56.47,8.45l-116.52,1.26-11.64,2.65a33.15,33.15,0,0,1,12.13,11.41,30,30,0,0,1,4,15.77q0,12.18-7.12,20.3t-21.36,11.87q3.56,8.77,3.56,15.34,0,15-9.11,23.65t-27.32,11.11c.13,2.3.19,4,.19,5q0,33.83-48.28,33.82l-11.27-.63-12-5Q171.53,378,153.73,378a184.73,184.73,0,0,1-19.42-1.56Q99,360.67,61.81,321.3H15.53Q0,285.67,0,250Zm70.23,55q29.13,36.21,66.67,57.62a86.43,86.43,0,0,0,11.32,1.26q4.86,0,21.36-2.19l-40.46-16.6q8.09-18.65,26.22-33.2l-20.06-8.72q17.79-29.21,39.16-35.74L151.78,258q22-41.65,59.23-41.66a65.63,65.63,0,0,1,16.51,2.19,77.69,77.69,0,0,1,17.15,6.89l29.38-.32q-16.3-5.95-35.53-20.35a119.41,119.41,0,0,1-55.34,13.47l-7.45-.63-.64-15.35,5.5.32q31.72,0,61.17-16.29,27.41,27.88,55.14,27.87A48.06,48.06,0,0,0,329.14,202l-50.2-45.1L196.77,150q-27.83,7.82-110,39.76H27.84a159.51,159.51,0,0,0-11.33,58.4q0,27.81,10,56.85ZM204.86,361.7l12.62.31q30.11,0,30.11-23.49h-31.4l-43.37-18.79q-13.92,8.61-21,17.84Zm16.83-38.61,29.28.71q15.94,0,23.91-5t8-14.72q0-5.64-4.91-13.15l-47.53.31-33.66-14.4q-26.53,3.43-37.86,19.92Zm13.91-47.2,34.16.32q19,0,28.68-5.17t9.67-15.18q0-7.21-6.61-10.81t-19.8-3.6H240.14a64.37,64.37,0,0,0-14.73-7.28,45.36,45.36,0,0,0-14.4-2.43q-24.6,0-36.9,20Zm116.51-73.59a96.26,96.26,0,0,1-7.77,7.83l73.46-.32q39.16,0,58.75-4.54T496.14,192q0-20-63.11-20l-118.45-2.82Z" fill="#737277"/></svg>